<?xml version="1.0" encoding="utf-8"?>
<!-- Generator: Adobe Illustrator 27.3.1, SVG Export Plug-In . SVG Version: 6.00 Build 0)  -->
<svg version="1.1" id="Layer_1" xmlns="http://www.w3.org/2000/svg" xmlns:xlink="http://www.w3.org/1999/xlink" x="0px" y="0px"
	 viewBox="0 0 1200 280.7" style="enable-background:new 0 0 1200 280.7;" xml:space="preserve">
<style type="text/css">
	.st0{fill:#FFFFFF;}
</style>
<g>
	<polygon class="st0" points="157.9,8.3 82.5,31.5 13,156.9 74.6,156.9 	"/>
	<polygon class="st0" points="13.6,180.6 61.8,270 124.4,270 73.4,180.6 	"/>
	<path class="st0" d="M245.3,169.9l-38.8-72.8c-23,40.6-63.6,115.2-77.4,138.7l19.1,34.2h40.4L245.3,169.9z"/>
	<path class="st0" d="M117.7,215.3l77.5-138.4L170,30.1c-19.8,35-60.6,107.1-78.6,138.1L117.7,215.3z"/>
</g>
<g>
	<path class="st0" d="M334.1,66.3v28.9h50.5v20.3h-50.5v39.8h-25.3V46h82.5v20.3H334.1z"/>
	<path class="st0" d="M552.2,70v22.5c-2-0.2-3.6-0.3-5.5-0.3c-13.4,0-22.3,7.3-22.3,23.4v39.6h-24.3V71.3h23.2v11.1
		C529.3,74.2,539.3,70,552.2,70z"/>
	<path class="st0" d="M651.4,71.3v69.9c0,31.2-16.8,45.5-47.1,45.5c-15.9,0-31.3-3.9-41.2-11.5l9.7-17.5c7.2,5.8,18.9,9.5,29.6,9.5
		c17.2,0,24.6-7.8,24.6-22.9v-3.6c-6.4,7-15.6,10.4-26.5,10.4c-23.2,0-41.9-16.1-41.9-40.5S577.3,70,600.6,70
		c11.7,0,21.4,3.9,27.8,12V71.3H651.4z M627.4,110.6c0-12.3-9.2-20.6-22-20.6c-12.8,0-22.1,8.3-22.1,20.6s9.4,20.6,22.1,20.6
		C618.2,131.2,627.4,122.9,627.4,110.6z"/>
	<path class="st0" d="M751.6,120.1h-63.5c2.3,10.4,11.2,16.8,24,16.8c8.9,0,15.3-2.6,21.1-8.1l12.9,14c-7.8,8.9-19.5,13.6-34.6,13.6
		c-29,0-47.9-18.2-47.9-43.2c0-25.1,19.2-43.2,44.8-43.2c24.6,0,43.7,16.5,43.7,43.5C752.1,115.4,751.8,118.1,751.6,120.1z
		 M687.8,105.9h41.3c-1.7-10.6-9.7-17.5-20.6-17.5C697.5,88.4,689.5,95.1,687.8,105.9z"/>
	<path class="st0" d="M833.8,155.2l-21.1-30.4h-1.2h-22v30.4h-25.3V46h47.3c29.2,0,47.4,15.1,47.4,39.6c0,16.4-8.3,28.4-22.5,34.5
		l24.5,35.1H833.8z M810.1,66.6h-20.6v38h20.6c15.4,0,23.2-7.2,23.2-19C833.4,73.6,825.6,66.6,810.1,66.6z"/>
	<path class="st0" d="M866.5,113.2C866.5,88,886,70,912.7,70c26.7,0,46,17.9,46,43.2s-19.3,43.2-46,43.2
		C886,156.4,866.5,138.5,866.5,113.2z M934.1,113.2c0-14.5-9.2-23.2-21.4-23.2c-12.2,0-21.5,8.7-21.5,23.2s9.4,23.2,21.5,23.2
		C924.9,136.5,934.1,127.7,934.1,113.2z"/>
	<path class="st0" d="M970.6,113.2c0-25.3,19.5-43.2,46.8-43.2c17.6,0,31.5,7.6,37.6,21.4l-18.9,10.1c-4.5-8-11.2-11.5-18.9-11.5
		c-12.3,0-22,8.6-22,23.2s9.7,23.2,22,23.2c7.6,0,14.3-3.4,18.9-11.5l18.9,10.3c-6.1,13.4-20,21.2-37.6,21.2
		C990.1,156.4,970.6,138.5,970.6,113.2z"/>
	<path class="st0" d="M1103.6,122.3l-11.7,11.5v21.4h-24.3V39.5h24.3V105l35.6-33.7h29l-34.9,35.6l38,48.3h-29.5L1103.6,122.3z"/>
	<path class="st0" d="M395.9,113.2c0-25.3,19.5-43.2,46.2-43.2c26.7,0,46,17.9,46,43.2s-19.3,43.2-46,43.2
		C415.4,156.4,395.9,138.5,395.9,113.2z M463.4,113.2c0-14.5-9.2-23.2-21.4-23.2c-12.2,0-21.5,8.7-21.5,23.2s9.4,23.2,21.5,23.2
		C454.2,136.5,463.4,127.7,463.4,113.2z"/>
	<path class="st0" d="M1181.3,73.2c2,1.1,3.6,2.7,4.7,4.7c1.1,2,1.7,4.2,1.7,6.6c0,2.4-0.6,4.7-1.7,6.7c-1.2,2-2.7,3.6-4.8,4.8
		c-2,1.2-4.2,1.7-6.7,1.7c-2.4,0-4.6-0.6-6.6-1.7c-2-1.2-3.6-2.8-4.7-4.8c-1.2-2-1.7-4.2-1.7-6.6c0-2.4,0.6-4.6,1.7-6.6
		c1.2-2,2.7-3.6,4.7-4.8c2-1.2,4.2-1.7,6.7-1.7S1179.3,72.1,1181.3,73.2z M1180.1,94.2c1.7-1,3-2.3,4-4c1-1.7,1.4-3.6,1.4-5.6
		c0-2.1-0.5-3.9-1.4-5.6c-0.9-1.7-2.2-3-3.9-4s-3.5-1.4-5.6-1.4c-2.1,0-4,0.5-5.7,1.5c-1.7,1-3,2.3-4,4c-1,1.7-1.4,3.6-1.4,5.6
		c0,2.1,0.5,3.9,1.4,5.6c1,1.7,2.3,3,3.9,4c1.7,1,3.5,1.5,5.6,1.5S1178.4,95.2,1180.1,94.2z M1180.6,85.2c-0.5,0.8-1.2,1.4-2.2,1.7
		l3.3,5h-3.2l-2.9-4.5h-0.4h-2.9v4.5h-3.2V77.3h6.1c1.9,0,3.4,0.5,4.5,1.4c1.1,0.9,1.7,2.2,1.7,3.7
		C1181.3,83.5,1181.1,84.4,1180.6,85.2z M1175,85c1,0,1.8-0.2,2.4-0.7c0.6-0.5,0.9-1.1,0.9-1.9s-0.3-1.5-0.9-1.9
		c-0.6-0.4-1.4-0.7-2.4-0.7h-2.8V85H1175z"/>
</g>
<g>
	<path class="st0" d="M326.2,223.6h-17.9v-10.6H357v10.6h-17.9v45.4h-13V223.6z"/>
	<path class="st0" d="M409.7,269.1l-10.8-15.6h-0.6H387v15.6h-13v-56h24.2c15,0,24.3,7.8,24.3,20.3c0,8.4-4.2,14.6-11.5,17.7
		l12.6,18H409.7z M397.5,223.6H387v19.5h10.6c7.9,0,11.9-3.7,11.9-9.8C409.4,227.2,405.4,223.6,397.5,223.6z"/>
	<path class="st0" d="M442.3,244.4v-31.4h13v30.9c0,10.6,4.6,15,12.5,15c7.9,0,12.5-4.4,12.5-15v-30.9H493v31.4
		c0,16.5-9.4,25.6-25.4,25.6C451.8,270,442.3,260.9,442.3,244.4z"/>
	<path class="st0" d="M511.4,263.5l4.4-9.8c4.7,3.4,11.8,5.8,18.5,5.8c7.7,0,10.8-2.6,10.8-6c0-10.5-32.6-3.3-32.6-24.1
		c0-9.5,7.7-17.4,23.6-17.4c7,0,14.2,1.7,19.4,5l-4,9.8c-5.2-3-10.6-4.4-15.5-4.4c-7.7,0-10.6,2.9-10.6,6.4
		c0,10.3,32.6,3.2,32.6,23.8c0,9.4-7.8,17.4-23.8,17.4C525.4,270,516.4,267.4,511.4,263.5z"/>
	<path class="st0" d="M587.7,223.6h-17.9v-10.6h48.8v10.6h-17.9v45.4h-13V223.6z"/>
	<path class="st0" d="M719.5,213.1v56h-10.6l-27.9-34v34h-12.8v-56h10.7l27.8,34v-34H719.5z"/>
	<path class="st0" d="M786.2,258.7v10.4h-43.4v-56h42.3v10.4h-29.4v12.2h26v10.1h-26v13H786.2z"/>
	<path class="st0" d="M818.1,223.6h-17.9v-10.6H849v10.6H831v45.4h-13V223.6z"/>
	<path class="st0" d="M949.5,213.1l-18.3,56h-13.9L905,231.1l-12.7,37.9h-13.8l-18.4-56h13.4l12.6,39.4l13.2-39.4h12l12.8,39.7
		l13-39.7H949.5z"/>
	<path class="st0" d="M962.6,241.1c0-16.6,13-29,30.6-29c17.6,0,30.6,12.2,30.6,29c0,16.7-13,29-30.6,29
		C975.5,270,962.6,257.7,962.6,241.1z M1010.7,241.1c0-10.6-7.5-17.9-17.5-17.9s-17.5,7.3-17.5,17.9c0,10.6,7.5,17.9,17.5,17.9
		S1010.7,251.7,1010.7,241.1z"/>
	<path class="st0" d="M1079.3,269.1l-10.8-15.6h-0.6h-11.3v15.6h-13v-56h24.2c15,0,24.3,7.8,24.3,20.3c0,8.4-4.2,14.6-11.5,17.7
		l12.6,18H1079.3z M1067.1,223.6h-10.6v19.5h10.6c7.9,0,11.9-3.7,11.9-9.8C1079,227.2,1075,223.6,1067.1,223.6z"/>
	<path class="st0" d="M1132.8,247.1l-7.5,7.8v14.2h-12.9v-56h12.9v26.2l24.8-26.2h14.4l-23.2,25l24.6,31h-15.1L1132.8,247.1z"/>
</g>
</svg>
